<svg width="24" height="24" viewBox="0 0 24 24" fill="none" xmlns="http://www.w3.org/2000/svg">
<g id="Frame 5">
<path id="Rectangle 5" d="M6.12403 9.03885C6.2568 7.97675 7.42732 7.39149 8.35666 7.92254L10.7597 9.29568C11.5282 9.73487 12.4718 9.73487 13.2403 9.29568L15.6433 7.92254C16.5727 7.39149 17.7432 7.97675 17.876 9.03885L19.2229 19.8139C19.3348 20.7092 18.6367 21.5 17.7344 21.5H6.26556C5.36332 21.5 4.66524 20.7092 4.77715 19.8139L6.12403 9.03885Z" stroke="#0D1222"/>
<path id="Vector" d="M15 6V4.01042C15 2.89583 14.0076 2 12.7985 2H11.2015C9.98099 2 9 2.90625 9 4.01042V6" stroke="#0D1222" stroke-width="1.2" stroke-miterlimit="10" stroke-linecap="round" stroke-linejoin="round"/>
<circle id="Ellipse 3" cx="9" cy="12" r="0.8" stroke="#0D1222" stroke-width="0.4"/>
<circle id="Ellipse 4" cx="15" cy="12" r="0.8" stroke="#0D1222" stroke-width="0.4"/>
</g>
</svg>
