<svg width="24" height="24" viewBox="0 0 24 24" fill="none" xmlns="http://www.w3.org/2000/svg">
<g id="15">
<g id="Group 1685">
<path id="Vector" d="M12.119 15.6C14.0023 15.6 15.529 14.0733 15.529 12.19C15.529 10.3067 14.0023 8.78003 12.119 8.78003C10.2357 8.78003 8.70898 10.3067 8.70898 12.19C8.70898 14.0733 10.2357 15.6 12.119 15.6Z" stroke="#969696" stroke-width="1.2" stroke-miterlimit="10" stroke-linecap="round" stroke-linejoin="round"/>
<path id="Vector_2" d="M12.1196 17.78C17.3774 17.78 21.6396 15.2772 21.6396 12.19C21.6396 9.1027 17.3774 6.59998 12.1196 6.59998C6.86186 6.59998 2.59961 9.1027 2.59961 12.19C2.59961 15.2772 6.86186 17.78 12.1196 17.78Z" stroke="#969696" stroke-width="1.2" stroke-miterlimit="10" stroke-linecap="round" stroke-linejoin="round"/>
</g>
<path id="Vector 34" d="M3 21C11.7868 12.2132 12.2132 11.7868 21 3" stroke="#969696" stroke-linecap="round"/>
</g>
</svg>
