<svg width="24" height="24" viewBox="0 0 24 24" fill="none" xmlns="http://www.w3.org/2000/svg">
<g id="5">
<g id="Group">
<path id="Vector" d="M15.38 7.39998C16.4293 7.39998 17.28 6.54932 17.28 5.49998C17.28 4.45063 16.4293 3.59998 15.38 3.59998C14.3306 3.59998 13.48 4.45063 13.48 5.49998C13.48 6.54932 14.3306 7.39998 15.38 7.39998Z" stroke="#0D1222" stroke-width="1.2" stroke-miterlimit="10" stroke-linecap="round" stroke-linejoin="round"/>
<path id="Vector_2" d="M17.2701 5.5H20.4401" stroke="#0D1222" stroke-width="1.2" stroke-miterlimit="10" stroke-linecap="round" stroke-linejoin="round"/>
<path id="Vector_3" d="M2.6001 5.5H13.4801" stroke="#0D1222" stroke-width="1.2" stroke-miterlimit="10" stroke-linecap="round" stroke-linejoin="round"/>
<path id="Vector_4" d="M7.90009 13.76C8.94943 13.76 9.80009 12.9093 9.80009 11.86C9.80009 10.8106 8.94943 9.95996 7.90009 9.95996C6.85075 9.95996 6.00009 10.8106 6.00009 11.86C6.00009 12.9093 6.85075 13.76 7.90009 13.76Z" stroke="#0D1222" stroke-width="1.2" stroke-miterlimit="10" stroke-linecap="round" stroke-linejoin="round"/>
<path id="Vector_5" d="M9.80009 11.86H20.4401" stroke="#0D1222" stroke-width="1.2" stroke-miterlimit="10" stroke-linecap="round" stroke-linejoin="round"/>
<path id="Vector_6" d="M2.6001 11.86H6.0101" stroke="#0D1222" stroke-width="1.2" stroke-miterlimit="10" stroke-linecap="round" stroke-linejoin="round"/>
<path id="Vector_7" d="M15.38 20.1199C16.4293 20.1199 17.28 19.2693 17.28 18.2199C17.28 17.1706 16.4293 16.3199 15.38 16.3199C14.3306 16.3199 13.48 17.1706 13.48 18.2199C13.48 19.2693 14.3306 20.1199 15.38 20.1199Z" stroke="#0D1222" stroke-width="1.2" stroke-miterlimit="10" stroke-linecap="round" stroke-linejoin="round"/>
<path id="Vector_8" d="M17.2701 18.22H20.4401" stroke="#0D1222" stroke-width="1.2" stroke-miterlimit="10" stroke-linecap="round" stroke-linejoin="round"/>
<path id="Vector_9" d="M2.6001 18.22H13.4801" stroke="#0D1222" stroke-width="1.2" stroke-miterlimit="10" stroke-linecap="round" stroke-linejoin="round"/>
</g>
</g>
</svg>
