<svg width="16" height="17" viewBox="0 0 16 17" fill="none" xmlns="http://www.w3.org/2000/svg">
<g id="google-icon logo" clip-path="url(#clip0_1_1456)">
<g id="Group">
<path id="Vector" d="M15.7934 8.45145C15.7934 7.78774 15.7403 7.30341 15.6255 6.80115H8.15625V9.79679H12.5405C12.4522 10.5412 11.9748 11.6624 10.9141 12.4157L10.8992 12.516L13.2609 14.3724L13.4245 14.389C14.9271 12.9808 15.7934 10.909 15.7934 8.45145Z" fill="#4285F4"/>
<path id="Vector_2" d="M8.15554 16.3443C10.3035 16.3443 12.1067 15.6268 13.4238 14.3891L10.9134 12.4158C10.2416 12.8912 9.33998 13.223 8.15554 13.223C6.0518 13.223 4.26627 11.8149 3.62977 9.86865L3.53648 9.87669L1.08082 11.805L1.04871 11.8956C2.35691 14.5325 5.04407 16.3443 8.15554 16.3443Z" fill="#34A853"/>
<path id="Vector_3" d="M3.62982 9.86869C3.46187 9.36643 3.36468 8.82824 3.36468 8.27218C3.36468 7.71607 3.46188 7.17794 3.62098 6.67568L3.61653 6.56871L1.1301 4.60938L1.04875 4.64864C0.509575 5.74288 0.200195 6.97167 0.200195 8.27218C0.200195 9.5727 0.509575 10.8014 1.04875 11.8957L3.62982 9.86869Z" fill="#FBBC05"/>
<path id="Vector_4" d="M8.15554 3.32117C9.64936 3.32117 10.657 3.97591 11.2316 4.52306L13.4768 2.29872C12.0979 0.998203 10.3035 0.199951 8.15554 0.199951C5.04407 0.199951 2.35691 2.01169 1.04871 4.64858L3.62094 6.67562C4.26627 4.72934 6.0518 3.32117 8.15554 3.32117Z" fill="#EB4335"/>
</g>
</g>
<defs>
<clipPath id="clip0_1_1456">
<rect width="15.6" height="16.2" fill="white" transform="translate(0.200195 0.199951)"/>
</clipPath>
</defs>
</svg>
