<svg width="32" height="32" viewBox="0 0 32 32" fill="none" xmlns="http://www.w3.org/2000/svg">
<g id="Frame 5">
<path id="Rectangle 5" d="M7.50353 11.9691C7.73956 10.0809 9.82049 9.04047 11.4726 9.98456L14.6766 11.8154C15.4965 12.2839 16.5029 12.2839 17.3227 11.8154L20.5267 9.98456C22.1789 9.04046 24.2598 10.0809 24.4958 11.9691L26.2917 26.3359C26.4906 27.9275 25.2496 29.3333 23.6456 29.3333H8.35376C6.74977 29.3333 5.50873 27.9275 5.70769 26.3359L7.50353 11.9691Z" fill="white"/>
<path id="Vector" d="M20 8V5.34722C20 3.86111 18.6768 2.66667 17.0646 2.66667H14.9354C13.308 2.66667 12 3.875 12 5.34722V8" stroke="white" stroke-width="1.6" stroke-miterlimit="10" stroke-linecap="round" stroke-linejoin="round"/>
<circle id="Ellipse 3" cx="12.0003" cy="16.0001" r="1.33333" fill="#774BF6"/>
<circle id="Ellipse 4" cx="20.0003" cy="16.0001" r="1.33333" fill="#774BF6"/>
</g>
</svg>
