<svg width="106" height="18" viewBox="0 0 106 18" fill="none" xmlns="http://www.w3.org/2000/svg">
<g id="Group 1828">
<path id="Star 1" d="M8.52414 1.47553C8.67315 1.01349 9.32685 1.01349 9.47586 1.47553L10.8982 5.88583C10.9649 6.09276 11.1578 6.23284 11.3752 6.23236L16.0091 6.22224C16.4946 6.22117 16.6966 6.84289 16.3032 7.12738L12.5483 9.84298C12.3722 9.97039 12.2985 10.197 12.3661 10.4037L13.8078 14.8077C13.9588 15.2691 13.4299 15.6533 13.0378 15.3671L9.29478 12.6352C9.11916 12.507 8.88084 12.507 8.70522 12.6352L4.96221 15.3671C4.57007 15.6533 4.04121 15.2691 4.19224 14.8077L5.63385 10.4037C5.70149 10.197 5.62785 9.97039 5.45167 9.84298L1.69675 7.12738C1.30337 6.84289 1.50538 6.22117 1.99085 6.22224L6.62483 6.23236C6.84225 6.23284 7.03506 6.09276 7.10179 5.88583L8.52414 1.47553Z" fill="#FFD43C"/>
<path id="Star 3" d="M52.5241 1.47553C52.6731 1.01349 53.3269 1.01349 53.4759 1.47553L54.8982 5.88583C54.9649 6.09276 55.1578 6.23284 55.3752 6.23236L60.0091 6.22224C60.4946 6.22117 60.6966 6.84289 60.3032 7.12738L56.5483 9.84298C56.3722 9.97039 56.2985 10.197 56.3661 10.4037L57.8078 14.8077C57.9588 15.2691 57.4299 15.6533 57.0378 15.3671L53.2948 12.6352C53.1192 12.507 52.8808 12.507 52.7052 12.6352L48.9622 15.3671C48.5701 15.6533 48.0412 15.2691 48.1922 14.8077L49.6339 10.4037C49.7015 10.197 49.6278 9.97039 49.4517 9.84298L45.6968 7.12738C45.3034 6.84289 45.5054 6.22117 45.9909 6.22224L50.6248 6.23236C50.8423 6.23284 51.0351 6.09276 51.1018 5.88583L52.5241 1.47553Z" fill="#FFD43C"/>
<path id="Star 2" d="M30.5241 1.47553C30.6731 1.01349 31.3269 1.01349 31.4759 1.47553L32.8982 5.88583C32.9649 6.09276 33.1578 6.23284 33.3752 6.23236L38.0091 6.22224C38.4946 6.22117 38.6966 6.84289 38.3032 7.12738L34.5483 9.84298C34.3722 9.97039 34.2985 10.197 34.3661 10.4037L35.8078 14.8077C35.9588 15.2691 35.4299 15.6533 35.0378 15.3671L31.2948 12.6352C31.1192 12.507 30.8808 12.507 30.7052 12.6352L26.9622 15.3671C26.5701 15.6533 26.0412 15.2691 26.1922 14.8077L27.6339 10.4037C27.7015 10.197 27.6278 9.97039 27.4517 9.84298L23.6968 7.12738C23.3034 6.84289 23.5054 6.22117 23.9909 6.22224L28.6248 6.23236C28.8423 6.23284 29.0351 6.09276 29.1018 5.88583L30.5241 1.47553Z" fill="#FFD43C"/>
<path id="Star 4" d="M74.5241 1.47553C74.6731 1.01349 75.3269 1.01349 75.4759 1.47553L76.8982 5.88583C76.9649 6.09276 77.1578 6.23284 77.3752 6.23236L82.0091 6.22224C82.4946 6.22117 82.6966 6.84289 82.3032 7.12738L78.5483 9.84298C78.3722 9.97039 78.2985 10.197 78.3661 10.4037L79.8078 14.8077C79.9588 15.2691 79.4299 15.6533 79.0378 15.3671L75.2948 12.6352C75.1192 12.507 74.8808 12.507 74.7052 12.6352L70.9622 15.3671C70.5701 15.6533 70.0412 15.2691 70.1922 14.8077L71.6339 10.4037C71.7015 10.197 71.6278 9.97039 71.4517 9.84298L67.6968 7.12738C67.3034 6.84289 67.5054 6.22117 67.9909 6.22224L72.6248 6.23236C72.8423 6.23284 73.0351 6.09276 73.1018 5.88583L74.5241 1.47553Z" fill="#FFD43C"/>
<path id="Star 5" d="M96.5241 1.47553C96.6731 1.01349 97.3269 1.01349 97.4759 1.47553L98.8982 5.88583C98.9649 6.09276 99.1578 6.23284 99.3752 6.23236L104.009 6.22224C104.495 6.22117 104.697 6.84289 104.303 7.12738L100.548 9.84298C100.372 9.97039 100.299 10.197 100.366 10.4037L101.808 14.8077C101.959 15.2691 101.43 15.6533 101.038 15.3671L97.2948 12.6352C97.1192 12.507 96.8808 12.507 96.7052 12.6352L92.9622 15.3671C92.5701 15.6533 92.0412 15.2691 92.1922 14.8077L93.6339 10.4037C93.7015 10.197 93.6278 9.97039 93.4517 9.84298L89.6968 7.12738C89.3034 6.84289 89.5054 6.22117 89.9909 6.22224L94.6248 6.23236C94.8423 6.23284 95.0351 6.09276 95.1018 5.88583L96.5241 1.47553Z" fill="#FFD43C"/>
</g>
</svg>
