<svg width="24" height="24" viewBox="0 0 24 24" fill="none" xmlns="http://www.w3.org/2000/svg">
<g id="Group 1949">
<g id="Group 1948">
<path id="Vector 35" d="M22.9999 2.40039L20.5764 3.92378L20.1533 5.82438M17.7375 16.6767V18.3887H5.25993M17.7375 16.6767L16.0479 16.4352M17.7375 16.6767L18.5417 13.0641M20.1533 5.82438H16.0479M20.1533 5.82438L19.404 9.19034M16.0479 5.82438V16.4352M16.0479 5.82438H12.3504M16.0479 16.4352L12.3504 15.9068M12.3504 5.82438V15.9068M12.3504 5.82438H8.72207M12.3504 15.9068L8.72207 15.3883M8.72207 5.82438V15.3883M8.72207 5.82438H5.20454M8.72207 15.3883L5.20454 14.8856M5.20454 5.82438H1.68701L2.53747 9.19034M5.20454 5.82438V14.8856M5.20454 14.8856L3.93047 14.7035L3.51624 13.0641M2.53747 9.19034H19.404M2.53747 9.19034L3.51624 13.0641M19.404 9.19034L18.5417 13.0641M3.51624 13.0641H18.5417" stroke="#646464" stroke-linecap="round" stroke-linejoin="round"/>
<path id="Ellipse 54" d="M8.13161 19.8532C8.13161 20.6399 7.52924 21.2366 6.83558 21.2366C6.14193 21.2366 5.53955 20.6399 5.53955 19.8532C5.53955 19.0665 6.14193 18.4697 6.83558 18.4697C7.52924 18.4697 8.13161 19.0665 8.13161 19.8532Z" stroke="#646464"/>
<path id="Ellipse 55" d="M17.3911 19.8532C17.3911 20.6293 16.781 21.2366 16.0552 21.2366C15.3293 21.2366 14.7192 20.6293 14.7192 19.8532C14.7192 19.077 15.3293 18.4697 16.0552 18.4697C16.781 18.4697 17.3911 19.077 17.3911 19.8532Z" stroke="#646464"/>
</g>
</g>
</svg>
